<svg id="Camada_2" data-name="Camada 2" xmlns="http://www.w3.org/2000/svg" viewBox="0 0 160.88 160.35"><defs><style>.cls-1{fill:#fff;fill-rule:evenodd;}</style></defs><title>logo_rp</title><path class="cls-1" d="M1301.31,881.35c.61-1.47.73-.95,1-1.07a60.12,60.12,0,0,1-2.34,6.41C1299,887.4,1301.55,881.9,1301.31,881.35Z" transform="translate(-1291.82 -818.59)"/><path class="cls-1" d="M1312.19,854.85a68.89,68.89,0,0,0-3,7.61C1307.93,864.07,1312.38,852.82,1312.19,854.85Z" transform="translate(-1291.82 -818.59)"/><path class="cls-1" d="M1333.54,926.53c1.51,2.31,1.36,2.36.24,1.2l-1.54-2.18C1332.79,926.09,1333.33,926.63,1333.54,926.53Z" transform="translate(-1291.82 -818.59)"/><path class="cls-1" d="M1368.7,974.42a17.8,17.8,0,0,1-2-2.58c-1.18-2.13-7.89-12.41-6.51-10.91-2.65-4.28-2.58-3.47-4.91-7.1.2,0,.74.66,1.28,1.33-6.71-10.07-10.9-16.5-14.74-22.37s-7.37-11.16-12.86-18.6c-1-1.54-.44-1.19-1.26-2.47-3-3.92-4.52-4.89-8.72-11.08-1-2.1.26,0,.6-.4l-1.31-1.85-2.05,3.92a35.58,35.58,0,0,1,7.34.38,12.87,12.87,0,0,1,2.73-.54c1.89.11.21.69,2.73.72,4.63-.86,7-.1,13.64-.36.54-.31-2-.46,0-.54,4.23.72,10.63-.54,20.46-.18.5-.45,4.9-.39,8-.51l-1.47-1.47a7.76,7.76,0,0,0,.39,2.95l.35,34v.52l.48.16c17.07,5.79,34.81,11.95,47.66,17,2.33.64,3.9.9,6.62,1.74l2.13.92,1.83.8-1-1.85c-2.55-4.72-4.94-9.24-6.37-12.61-.22.23-1-.64-1.92-2-2.43-6.4-13.75-23.86-20.9-33.59.1-1.29-11.43-19.39-14.12-23.35a32.87,32.87,0,0,1-2.51-3.25c-4.88-7.53-10.5-16.72-16.65-26.33l-1.95,4.16,5.63-.72c5.77-1.76,16.84-2.15,25.69-3.39.51-.07-.12-.34,1.31-.53,7-.95,18.73-2.54,25.22-3.49l-2-2-.19,1.81c-.38,3.76-1.17,7.83-1.67,12.16-.2,1.69-.1,3.63-.47,6.82-.85,7.25-2.08,15.24-1.45,16.31-.28,1.69-.57,2.74-.87,2.64-.38,4.24-.67,8-.86,11.05l0,.43.17.26c1.45,2.29,2.65,4.12,3.63,5.59,1.92,4.27,7.42,14.26,10.05,17.81,1.25,3.49,5.65,10.28,8.56,15.21l.8,1.35.54-1.45.57-1.54c3.69-9.7,8.5-21.53,11.8-30.53.64-1.73.52-2.36,1.14-3.95a26.41,26.41,0,0,1,1.42-2.83l.09-.17-.1-.33a30.42,30.42,0,0,0-1.25-3.46c-2.09-4.89-3-5.59-4.85-9.79a224.71,224.71,0,0,0-9.8-22.51l.66-.29c-1.36-3.46-1.42-2.37-2.51-4.86-1.53-4.34-4.07-10.35-6.14-15.59l-.18-.46-.53-.23a67.9,67.9,0,0,1-9.47-4.68c-9.7-4.19-14.24-4.89-21.61-8.4.06-.17,1.11.21,1.4.17-8.94-3.79-17.82-7.25-26.32-10.52l-.93-.36-.87.37c-11,4.63-21.27,9-30.55,12.55-.12.28.41.38-1.06,1-1.79.68-1.59.22-2.73.53-4.35,1.69-3.59,2.05-6,3.25-2.62.41-4.3,2.09-7.5,3.26-2.7.94-4.84,1.47-6.86,2.07l-.66.2-.51,1a29.34,29.34,0,0,0-2.43,6c1.33-3.05.86.12.33,1.6-.91-.36-2.6,5.57-4,8.68-.61,1.35-.11-.79-1.34,2.4a28.67,28.67,0,0,0-1.67,5.21c-1.7,2.25-3.13,8-5.35,12.55.31,0,0,1.15-.5,2.73-2.57,5.37-4.91,11.13-7.18,17.06l-.3.77.29.71L1300.2,920c-.8-2-1.71-4.41-1.83-3.68,1.32,4.37,5.52,13,7,17.77.24-.5.75.06,1.67,2.27-.27,3,4.42,11.51,8.06,20.49l.2.5.49.2,2.39,1c4.12,1.75,6.68,3.06,11.59,5.28a154.76,154.76,0,0,1,19.72,7.5c3.67.71,13.74,4.72,21.1,7.56,1.71.35-2.68-1.54-7.7-4a66,66,0,0,1-6.58-2.64c-2.93-1.25-5.78-2.45-6.33-2.22,2,.41-1.2-.93-2.88-2.06-4.26-1.22-4.35-2.2-7.28-3.19,3,1.31.37.7-1.15,0-.37-1-4.33-1.72-7.39-3.12-.18-.29.25-.42-1.17-1.05-3-.87-7.92-2.68-13.57-4.89l.4.41c-2.85-6.9-6-14.95-8.57-21.75-1.84-4.83-4.07-11.54-5.66-15.36-1.37-3.3-2.92-5.81-1.33-3.87a87.13,87.13,0,0,1-5.33-12.56c-.54-.88-1.12-1.78-1.74-2.88v.24a40.22,40.22,0,0,1,3.15-8.39c.78-3.48,3.34-10.16,3.18-11.94.44-.23,3.75-5.94,1.67-.8.24,1.32,1.16-3.1,2-5.08.14-.32.35.49.5.2,1.14-2.11,2.2-6.1,3.35-8.94-1.43,0,3.07-10.45,5.69-16.82.47,0,1.46-2.17.84.33l1.93-4.77-.22.22c14.46-5.8,38.38-15.9,54.76-22.65H1371c5.05,2,9.23,3.65,12.39,5,.81-.82,11.9,4.37,15.28,5.88a12.81,12.81,0,0,1,2.74.51c1.29.69.15.77,3.6,2,0-.32,1.14,0,2.73.5,6,3,12.85,5.28,17.48,7.72-2.65-.24-7.09-2.38-11.47-4.37a116.21,116.21,0,0,0,13.26,6.24l-.69-.67c1.33,3.16,2.65,6,3.58,7.78a17.94,17.94,0,0,1-1.68-5.22c.54.9,3.83,6.08,4.52,9.93,0,1.23-1.2-1.58-1.37-.9,4.84,10.66,12.12,28.8,19.24,44.72l0-1.12-1.1,2.95c.11.66.54.74-.8,4.08-2,2.62-6.16,14.33-7.21,19.14-.24,0-.86,1.54-1,1.08.89-1.76,1.38-3,1.3-3.88-2.44,7-3.28,10.49-5.19,15.83l.72-.05c-.58-1-1.22-2.07-1.91-3.3-1-1.72.05-.53-.36-1.37-1.22-2.48-3.6-5.35-4-7.13a13.26,13.26,0,0,0,2.32,3.39c-5.9-9.6-8.51-15.08-14.59-26.22-.61-.8-1.8-2.45-3-4.36l.09.47a38.25,38.25,0,0,1,1-6.92c-.18,1.65-.34,3.22,0,2.75.82-7.23,0-8,.06-12.36.93-2.39,1.81-9.36,2.73-13.4-.19-4.73.07-8,1.1-16.36.25,0,.31.69.37,1.42.13-2.17.25-3.6.47-5.9l0-.38-.36.06-3.59.56c.9-.14,1.41,0,0,.18-9.75,1.07-18.36,2.92-27,3.74-1.64.16-5.1.07-6.83.31-.51.07-3.15.89-4,1-4,.75-8.56,1.21-9.41,1.72-.24-.18.17-.54-1.42-.37-.54.39-3.08.78-5.58,1.16l.59-1.25,1.42,2.06c7.31,11.95,12.23,19.65,22.09,34.44-.67-.24,1,2.31,0,1.63,3.63,4.46,5.92,9.57,8.56,12.34a11.48,11.48,0,0,1-1.32-2.4c.74,1.15,1,1.29,1.63,2.2,2,3.91,3.91,7.76,6.3,12.16.44.1,1.61,1.75,3.25,4.4-.12.45-1.17-1.08-1.34-.76,6.94,11.9,13.64,21.73,22.15,34.89l1.06-1.35-6.05-2.1c.14-.21-.48-.59-1.12-1-.25-.53,3.79,1.11,4,.84l-12.88-4.49c.16.7,6.43,2.67,7.43,3.54-8.79-3.17-16.42-5.33-21.83-7.8-4.44-.68-13.41-5-15.57-5,1.49.61,2.86,1.2,3.75,1.69a39.79,39.79,0,0,0-3.92-1.18c-.58-.48-1.76-1.09-2.34-1.58a63.08,63.08,0,0,0-7.91-2.58l.61.86c-.14-1.63-.32-3-.37-5.32.24,0,.16,2.39.36,2.73.84-8.84-.73-16.77.36-24.55-.49-1.64-.63-6-.84-9.77l0-.45-.4,0-1.14.06c-1.36-.37-7.95-.31-13.64-.54-.21.21.24.51-1.36.54-5-.06-3.6-1-9.55-.9-2.55.82,5.42.25,4.09.9-6.49.2-13-.3-6.82-.72-3.62-.21-8,.34-8.18,0-1.69-.58,4.42-.14,2.73-.72-.07-.23-1.75-.25-1.37-.54-9,.55-13.26,0-19.61-.39l-5-.32,2.76,4.6c1.1,1.84,2.35,3.87,4,6.28.82,0-2.76-4.93-2-5,2.35,4.49,3.75,4.77,5,7.85-.88-.93-2.85-4-2.75-3,3.62,5.1,5,5.75,7.82,9.33.93,1.52,4.48,7.72,5.37,7.65.53-.28-2.91-3.5-2.13-3.33.93,1.27,1.11,1.11,1.29.95,4.07,5.26,7.23,10.36,10.78,14.32-2.17-3.5-4.84-6.13-5.44-7.83,3.11,3.43,5.54,7,11,14.63.07-.93,1.59.8,3.27,4.58q-3-4.37-3.81-4.63c3.56,5.48,8.61,12.79,13.19,19.11a78.51,78.51,0,0,0,5.47,8.22c2.45,3.44,4.92,6.93,5.74,8.29C1369.63,976.44,1369.95,977,1368.7,974.42Zm-25.06-7.36c-1.66-.46-4.19-1.35-7.4-2.6A23.28,23.28,0,0,1,1343.63,967.06Zm68.53-38.58c4,5,2.2,5.11,0,0Zm-109-3.79c2,3.33,1.85,5,4.49,11.42C1307.1,937.26,1302,924.25,1303.2,924.69Zm8,21.77-2-5.08a17.91,17.91,0,0,1,2.5,4.88Zm83.64-92.95a13.24,13.24,0,0,1,4-.86C1399.52,853,1396.94,853.23,1394.82,853.51Zm5.82,59.68c.55.16,3.52,5.42,2.64,4.78C1400.8,914.48,1401.74,915,1400.65,913.19Zm-66.14-12.64c-3,.1-1.94-.34-4.09-.36C1331,899.74,1335.7,900.18,1334.5,900.55Zm31.77,71c1.28,1.85,1.18,1.85,2.16,3.28C1368.46,975.07,1364.69,969.55,1366.27,971.55Zm60.28-15.28-2.58-.9.12-.34,2.57.9Zm19.88-42c-1.12,2.61-1.3,2.59-1,1.08l1-2.55C1446.84,912.49,1446.25,914.06,1446.44,914.21Zm-10.94-51.37c.12-.52,3.35,6.88,2,5.07C1436.51,865.68,1436.57,865.19,1435.5,862.84ZM1329,899.29c-1.84-.12-2.55-.38-2.73-.72h4.1C1331,898.94,1329.48,899,1329,899.29Zm-9.21,7.29c-.31-.08-.11.41.45,1.28-1-.42-3.36-4.39-5.14-7.27l-1.37-2.21,2.47.11,1.88.08a14.79,14.79,0,0,1-1.88.24l-2,.14,1.17,1.46C1316.8,902.13,1317.91,904.15,1319.84,906.58Zm3.75-8c-3.58.05-4.47-.25-4.08-.72C1321.49,898,1323.82,898.12,1323.59,898.57Z" transform="translate(-1291.82 -818.59)"/></svg>